<?xml version="1.0" standalone="no"?>
<!DOCTYPE svg PUBLIC "-//W3C//DTD SVG 20010904//EN"
 "http://www.w3.org/TR/2001/REC-SVG-20010904/DTD/svg10.dtd">
<svg version="1.0" xmlns="http://www.w3.org/2000/svg"
 width="1045.000000pt" height="1045.000000pt" viewBox="0 0 1045.000000 1045.000000"
 preserveAspectRatio="xMidYMid meet">
<metadata>
Created by potrace 1.16, written by Peter Selinger 2001-2019
</metadata>
<g transform="translate(0.000000,1045.000000) scale(0.100000,-0.100000)"
fill="#000000" stroke="none">
<path d="M4745 8315 c-100 -17 -195 -54 -261 -103 -248 -179 -387 -307 -404
-372 -7 -24 -36 -66 -80 -115 -38 -42 -83 -101 -100 -131 -33 -57 -37 -101 -9
-96 13 2 17 -12 23 -74 3 -43 6 -108 6 -146 0 -108 42 -275 105 -423 15 -36
18 -37 28 -20 5 11 16 24 24 28 7 4 13 13 13 18 0 18 51 78 93 109 48 35 97
41 97 11 0 -10 8 -29 19 -42 l18 -23 5 54 c4 42 11 59 31 76 38 33 125 48 272
49 138 0 231 -15 265 -43 22 -19 51 -144 42 -187 -2 -15 0 -25 7 -25 7 0 11
29 11 83 0 45 5 89 10 97 7 11 29 15 87 15 l77 0 9 -32 c13 -44 21 -41 33 10
8 37 15 45 55 65 74 37 257 58 379 45 127 -14 153 -31 164 -109 4 -26 20 -24
24 3 2 14 11 23 25 25 20 3 23 13 35 93 8 58 11 164 9 295 -4 179 -7 213 -26
270 -12 36 -31 78 -42 93 -12 16 -19 37 -16 47 7 25 -6 34 -83 60 -47 16 -81
21 -122 18 -54 -4 -72 2 -48 17 15 9 12 25 -5 25 -10 0 -15 10 -15 30 0 65
-62 162 -131 206 -63 39 -245 95 -344 105 -118 11 -183 10 -280 -6z m575 -380
c107 -7 172 -35 240 -106 55 -56 121 -159 162 -254 41 -94 98 -326 98 -402 0
-39 -1 -39 -138 -17 -71 12 -129 14 -219 10 -163 -8 -218 -20 -285 -61 -53
-33 -61 -35 -143 -35 -73 0 -92 3 -117 21 -16 12 -26 24 -21 28 5 3 16 18 25
32 16 25 15 27 -13 57 -17 18 -37 32 -46 32 -9 0 -24 6 -32 13 -27 23 -111 35
-241 36 -109 1 -129 -1 -155 -19 -16 -11 -45 -30 -63 -41 -34 -22 -61 -59 -42
-59 5 0 10 -7 10 -15 0 -9 10 -19 22 -24 18 -6 10 -11 -46 -26 -45 -12 -71
-25 -78 -39 -6 -11 -22 -29 -36 -41 -14 -11 -37 -32 -51 -47 -18 -20 -35 -28
-58 -28 -18 0 -33 5 -33 10 0 6 4 10 9 10 4 0 9 32 10 70 1 47 12 101 31 161
17 50 30 101 30 114 0 13 4 27 10 30 5 3 9 34 7 69 -2 71 8 91 62 113 19 8 43
26 53 39 11 13 30 24 43 24 23 0 114 56 148 91 10 11 24 19 32 19 7 0 34 16
59 35 26 19 51 35 56 35 6 0 18 4 28 9 9 5 55 22 102 37 47 14 101 35 121 45
55 28 179 71 229 79 25 5 68 6 95 4 28 -2 88 -7 135 -9z"/>
<path d="M5331 7329 c-64 -5 -110 -14 -120 -23 -9 -8 -25 -16 -35 -17 -12 -3
-23 -16 -28 -37 -5 -17 -13 -32 -18 -32 -6 0 -10 -9 -10 -20 0 -25 33 -42 66
-34 18 5 25 3 20 -4 -4 -6 2 -8 15 -5 11 3 23 12 26 19 3 8 20 14 42 14 20 0
41 4 47 10 5 5 50 13 99 16 65 5 97 12 114 26 30 23 67 23 80 1 5 -10 13 -14
17 -10 13 13 -10 40 -58 70 -54 34 -108 39 -257 26z"/>
<path d="M5333 7082 c-31 -9 -63 -39 -63 -57 0 -8 -1 -18 -2 -22 -2 -4 38 -9
88 -10 91 -4 92 -4 98 22 8 30 36 33 43 5 4 -16 14 -20 52 -20 100 0 91 33
-18 69 -63 20 -151 26 -198 13z"/>
<path d="M4539 7042 c-36 -9 -77 -25 -90 -35 -13 -10 -39 -27 -58 -38 -19 -11
-30 -24 -25 -29 9 -8 212 1 357 16 77 8 84 19 38 65 -19 18 -40 29 -58 29 -15
0 -44 2 -63 4 -19 3 -65 -3 -101 -12z"/>
<path d="M9780 6683 c-8 -3 -39 -17 -68 -30 -47 -21 -59 -23 -101 -14 -50 11
-101 5 -195 -22 -33 -9 -61 -11 -85 -6 -189 43 -188 43 -227 31 -27 -9 -79
-11 -164 -8 -182 8 -250 8 -395 1 -131 -7 -195 -18 -195 -36 0 -32 -210 -70
-347 -63 -65 4 -98 2 -115 -8 -15 -8 -66 -13 -145 -14 -109 -1 -249 -11 -296
-20 -9 -1 -42 4 -73 12 -79 20 -107 18 -169 -16 -65 -35 -131 -39 -229 -14
-104 27 -290 5 -389 -46 -66 -34 -78 -36 -138 -14 -49 17 -101 21 -121 8 -39
-26 -93 -34 -223 -34 -145 0 -143 1 -235 -50 -14 -7 -32 -16 -40 -20 -9 -4
-25 -44 -37 -93 -25 -95 -69 -191 -115 -248 -26 -32 -29 -43 -23 -71 5 -18 8
-76 8 -128 0 -103 -6 -124 -93 -340 -23 -58 -58 -156 -77 -219 -36 -123 -46
-141 -73 -141 -11 0 -24 -14 -34 -40 -20 -50 -20 -79 -1 -86 19 -8 19 -33 -4
-119 -27 -105 -94 -242 -125 -257 -28 -12 -33 -23 -16 -33 8 -5 7 -11 -1 -21
-17 -20 -13 -223 5 -252 5 -8 12 -41 23 -102 9 -53 14 -176 18 -465 3 -165 6
-338 8 -384 l2 -85 -45 -13 c-53 -16 -165 -12 -290 11 -47 8 -110 15 -140 16
-30 0 -60 4 -66 8 -6 4 -11 27 -12 52 -3 81 -13 204 -19 234 -7 38 13 25 22
-14 6 -28 21 -47 31 -38 2 3 -10 56 -26 119 -17 63 -31 122 -31 132 0 9 -4 17
-9 17 -11 0 -1 372 10 400 1 3 2 8 1 13 -3 17 28 5 34 -13 6 -19 25 -28 25
-12 0 35 -33 179 -42 187 -7 6 -14 25 -15 44 0 18 -6 36 -11 40 -6 3 -10 13
-9 21 0 8 -18 56 -42 105 -42 87 -116 270 -140 347 -13 40 -3 90 40 203 10 28
19 54 19 58 0 4 -18 30 -40 58 -22 28 -40 56 -40 62 0 5 -3 7 -7 3 -5 -4 -8
-69 -8 -144 0 -117 -2 -137 -16 -140 -13 -2 -17 11 -22 78 -5 58 -15 101 -38
153 -101 233 -100 231 -107 382 -6 123 -5 144 11 175 17 33 17 39 1 120 -22
107 -74 271 -106 331 -14 25 -28 57 -31 70 l-6 23 -29 -27 c-18 -17 -43 -29
-72 -33 -59 -8 -104 22 -145 96 -25 45 -35 56 -60 58 -42 5 -56 20 -53 58 1
19 -2 38 -7 43 -11 10 -94 18 -265 27 -126 6 -164 16 -196 53 l-21 24 -45 -22
c-37 -17 -55 -20 -99 -15 -37 4 -65 2 -89 -8 -23 -10 -45 -12 -63 -7 -34 9
-54 3 -67 -21 -12 -22 14 -60 41 -60 30 0 22 -20 -8 -22 -16 0 -32 -2 -38 -3
-116 -21 -144 -18 -177 20 -12 13 -36 30 -55 36 -19 6 -46 22 -61 36 -78 74
-129 80 -215 27 l-59 -36 -71 17 c-93 23 -106 22 -137 -14 l-26 -29 -48 49
c-61 63 -93 65 -142 12 -31 -34 -46 -61 -26 -49 4 2 14 1 22 -4 13 -8 12 -12
-4 -27 -19 -17 -19 -17 -5 2 13 18 13 19 -3 6 -10 -7 -18 -21 -18 -30 0 -10
-3 -12 -8 -5 -4 6 -26 18 -50 27 -32 13 -48 15 -62 7 -14 -8 -26 -7 -42 1 -25
14 -38 16 -153 29 -99 11 -118 16 -180 51 -89 48 -119 54 -168 30 -45 -22 -59
-22 -95 -3 -19 11 -25 10 -43 -7 -28 -25 -68 -33 -164 -32 -49 1 -100 -5 -132
-15 -52 -16 -65 -15 -210 2 -57 6 -69 0 -91 -49 -6 -15 -29 -51 -51 -80 -31
-42 -40 -64 -46 -112 -3 -33 -11 -80 -16 -105 -23 -107 -28 -126 -37 -151 -6
-14 -16 -70 -22 -125 -7 -54 -18 -111 -26 -126 -23 -44 -18 -82 13 -99 30 -16
131 -16 162 0 13 7 22 8 26 1 8 -13 62 -13 70 0 3 6 24 10 46 10 22 0 50 5 61
11 28 15 131 -8 124 -27 -3 -8 1 -20 9 -28 8 -8 15 -16 15 -18 0 -8 -70 -5
-76 3 -17 28 -94 -21 -94 -60 0 -13 -15 -31 -39 -46 -37 -25 -44 -26 -122 -20
-109 9 -134 -1 -150 -57 -7 -24 -13 -74 -14 -113 -1 -38 -7 -81 -14 -94 -9
-16 -11 -37 -6 -65 6 -33 13 -170 14 -276 0 -65 -10 -202 -18 -239 -5 -25 -10
-98 -10 -162 -1 -101 2 -126 24 -187 14 -38 25 -88 25 -110 0 -51 15 -88 53
-129 29 -31 30 -34 19 -85 -12 -61 3 -154 42 -271 14 -40 28 -90 32 -112 3
-22 10 -44 14 -50 5 -5 13 -30 20 -55 6 -25 54 -131 106 -235 52 -105 94 -198
94 -208 0 -9 4 -17 9 -17 4 0 21 -28 36 -62 53 -121 127 -262 154 -293 10 -11
30 -41 44 -67 15 -26 43 -62 62 -80 21 -20 48 -66 70 -118 20 -47 42 -92 49
-100 7 -8 28 -40 46 -70 18 -30 36 -57 39 -60 4 -3 14 -15 22 -27 12 -17 100
-119 144 -167 6 -6 27 -33 47 -59 73 -97 147 -163 210 -189 9 -4 28 -24 42
-45 51 -79 89 -112 145 -125 38 -8 58 -20 72 -40 17 -23 23 -26 39 -16 10 7
17 15 14 20 -3 4 3 16 13 28 30 35 108 22 145 -25 22 -28 35 -25 48 11 16 40
83 45 97 7 4 -10 9 -20 12 -23 6 -5 51 -89 51 -96 0 -11 -59 -31 -81 -27 -34
6 -53 -16 -40 -50 16 -42 63 -42 148 0 l73 36 34 -27 c27 -20 46 -26 85 -26
46 0 51 -2 57 -25 8 -32 -21 -68 -47 -60 -23 8 -59 -11 -59 -30 0 -8 -4 -15
-10 -15 -5 0 -10 -10 -10 -23 0 -14 24 -48 63 -90 57 -61 65 -66 96 -62 36 4
51 18 51 47 0 27 40 58 75 58 32 0 66 -27 78 -62 4 -10 16 -18 27 -18 24 0 26
13 5 30 -8 7 -15 19 -15 26 0 8 -8 22 -19 33 -13 13 -17 29 -15 51 5 45 8 47
61 53 27 3 57 8 68 12 12 3 33 -3 53 -15 l32 -20 -21 -52 c-11 -29 -23 -62
-26 -73 -3 -11 -13 -28 -21 -37 -8 -10 -11 -18 -6 -18 5 0 10 -17 12 -37 1
-21 11 -46 21 -56 16 -16 20 -17 33 -4 13 13 17 12 32 -14 14 -24 24 -29 57
-29 21 0 39 4 39 9 0 5 8 8 17 7 29 -2 44 42 37 115 -4 44 -3 69 5 73 6 4 11
18 11 31 0 34 59 78 94 70 14 -3 37 -7 50 -10 20 -4 26 -13 31 -48 7 -45 -18
-290 -34 -342 -6 -16 -17 -74 -26 -129 -17 -110 -16 -115 44 -145 77 -38 294
-112 491 -166 13 -3 150 -35 350 -80 36 -8 115 -22 175 -30 61 -9 115 -18 122
-20 13 -4 56 32 71 60 10 20 13 59 32 440 14 257 27 395 41 412 6 7 28 13 48
13 20 0 85 5 144 12 97 10 112 10 137 -5 36 -21 40 -21 40 2 0 23 15 27 149
43 102 12 104 12 121 -10 10 -12 37 -82 61 -154 23 -73 46 -134 50 -136 4 -2
5 -10 2 -18 -3 -8 0 -14 7 -14 6 0 9 -4 6 -9 -3 -5 0 -28 8 -52 12 -40 33
-123 41 -166 2 -10 4 -19 5 -20 2 -2 4 -7 5 -13 1 -5 4 -12 5 -15 1 -3 4 -9 5
-15 1 -5 4 -12 5 -15 1 -3 3 -8 4 -12 1 -5 5 -14 9 -20 5 -7 6 -13 3 -13 -3 0
2 -24 11 -52 8 -29 16 -57 17 -63 1 -5 4 -14 7 -20 4 -5 16 -40 28 -76 12 -36
30 -75 40 -86 19 -20 20 -20 163 -1 236 31 572 101 843 177 160 44 511 183
706 279 73 35 76 39 82 77 3 22 2 58 -3 80 -13 55 -13 59 10 85 11 13 20 20
20 16 0 -4 7 -1 15 7 9 9 46 18 96 22 45 4 97 14 116 21 18 8 35 14 38 14 38
-2 247 98 293 140 18 16 32 37 32 46 0 9 12 32 26 51 14 19 23 40 20 48 -3 8
-24 24 -47 36 -24 12 -50 30 -59 41 l-16 20 -45 -20 c-38 -18 -46 -19 -60 -6
-8 7 -30 19 -48 25 -28 10 -35 9 -51 -9 -10 -11 -25 -22 -32 -25 -9 -4 -10 -8
-2 -14 7 -4 19 -26 28 -47 16 -38 16 -40 -5 -62 l-21 -22 -69 24 c-38 13 -78
24 -89 24 -12 0 -34 7 -49 15 -37 19 -79 4 -109 -39 -12 -17 -22 -24 -22 -16
0 13 -2 13 -10 0 -9 -13 -12 -13 -21 2 -5 10 -17 18 -24 18 -15 0 -22 19 -7
21 30 3 48 10 57 22 12 17 55 29 55 15 0 -5 5 -6 10 -3 6 4 8 10 5 15 -3 5 -1
12 5 15 13 8 -6 35 -24 35 -6 0 -28 25 -50 56 -36 53 -106 114 -130 114 -18 0
-59 68 -52 85 3 9 10 13 16 10 5 -3 27 12 48 34 22 23 47 41 57 41 9 0 34 -17
54 -38 35 -38 134 -112 149 -112 4 0 18 -9 32 -20 30 -24 65 -25 104 -5 33 17
71 13 121 -13 35 -19 168 -24 235 -10 85 18 118 19 193 3 81 -17 93 -14 142
27 11 9 40 19 65 23 41 6 91 32 115 59 6 7 35 22 65 35 115 49 215 127 259
204 16 29 62 86 100 127 39 41 85 100 103 130 32 56 68 100 164 203 30 31 54
64 54 71 0 13 33 64 170 264 20 29 37 60 37 70 4 39 54 145 113 238 81 128
133 230 164 326 14 43 30 87 36 99 7 12 18 62 26 113 8 50 24 110 35 133 16
33 37 130 39 175 0 3 13 19 28 35 46 46 102 256 102 383 0 47 0 98 0 113 0 16
12 55 25 88 14 32 25 72 25 88 0 16 5 42 11 58 7 15 11 72 11 126 -1 56 5 125
14 164 32 138 17 753 -21 868 -9 28 -32 66 -50 85 -18 19 -40 51 -48 70 -19
45 -72 104 -86 95 -15 -9 -14 8 1 23 6 6 12 40 13 75 0 49 6 70 23 92 30 38
28 56 -13 92 -40 36 -41 43 -17 98 16 36 17 47 6 112 -13 74 -38 120 -81 148
-22 15 -74 19 -103 8z m-3405 -805 c77 1 202 5 277 8 119 6 139 4 153 -10 9
-9 12 -16 7 -16 -5 0 -12 -8 -14 -18 -6 -22 -71 -43 -158 -50 -52 -4 -70 -10
-88 -29 l-22 -24 21 -30 c11 -16 24 -27 28 -25 4 3 7 -10 7 -27 0 -56 13 -87
34 -87 13 0 20 -7 20 -20 0 -18 3 -19 20 -8 25 16 36 4 23 -24 -10 -22 -10
-22 -48 15 -44 43 -52 45 -57 15 -2 -19 -8 -22 -31 -20 -15 2 -34 -2 -42 -8
-7 -6 -16 -7 -19 -2 -10 16 -177 12 -203 -5 -34 -23 -81 -19 -159 12 -67 26
-74 31 -94 76 -13 26 -24 69 -25 95 -2 59 -27 76 -69 49 -29 -19 -34 -50 -11
-81 12 -18 12 -24 1 -40 -13 -17 -19 -17 -77 -5 -35 7 -65 14 -67 15 -1 2 -11
32 -21 67 -10 35 -26 81 -35 101 l-16 37 33 5 c64 11 243 23 272 19 17 -2 57
3 90 11 33 8 76 12 95 9 19 -3 98 -5 175 -5z m-4177 -78 l33 -20 -21 -30 c-11
-16 -24 -32 -29 -34 -9 -6 -115 -9 -177 -6 -55 3 -85 -8 -82 -28 2 -10 -4 -17
-16 -17 -23 0 -33 -53 -11 -61 14 -6 16 -61 2 -56 -4 1 -12 2 -18 2 -6 0 -8 7
-4 18 5 14 4 15 -6 5 -17 -17 -51 -16 -75 2 -10 8 -25 15 -32 15 -15 0 -61
-50 -62 -67 0 -7 -4 -13 -10 -13 -5 0 -10 -7 -10 -15 0 -18 -7 -18 -90 0 -36
7 -66 10 -68 5 -2 -5 -19 -2 -38 6 -26 11 -39 12 -55 3 -11 -6 -28 -7 -37 -3
-9 4 -30 8 -47 8 -25 1 -31 6 -33 28 -3 21 3 30 27 42 39 21 48 20 78 -4 18
-14 30 -17 38 -10 6 5 25 9 41 9 54 -2 179 13 190 22 15 12 25 49 13 49 -5 0
-9 11 -9 25 0 40 -40 50 -121 31 -78 -19 -101 -20 -152 -5 -26 7 -37 15 -35
26 4 19 25 24 100 23 31 0 59 4 63 10 3 5 19 10 34 10 15 0 31 3 35 7 4 4 39
8 77 10 39 1 76 6 82 12 7 5 70 10 142 10 71 1 131 4 134 6 2 3 29 5 60 5 38
0 66 -6 89 -20z m-998 -58 c21 -17 22 -21 11 -55 -10 -29 -18 -37 -37 -37 -13
0 -24 -4 -24 -10 0 -22 -33 -8 -70 30 -22 23 -40 45 -40 49 0 19 48 40 91 40
31 1 54 -5 69 -17z m1740 -65 c75 -10 94 -16 91 -27 -16 -57 -12 -76 24 -117
22 -26 45 -43 58 -43 12 0 39 -9 60 -20 21 -11 41 -19 45 -17 4 3 16 1 27 -3
13 -4 34 0 60 14 41 22 138 29 197 14 16 -4 33 -1 44 6 14 11 22 11 43 0 14
-7 58 -17 96 -21 l70 -8 0 -47 c1 -25 7 -53 13 -61 14 -16 82 -28 82 -14 0 4
22 7 50 6 61 -3 55 -13 -41 -70 -44 -26 -66 -45 -63 -54 8 -20 -75 -42 -87
-24 -4 8 -3 19 3 26 8 10 5 13 -11 13 -12 0 -20 4 -17 9 10 16 -68 42 -124 40
-30 -1 -82 6 -114 15 -54 14 -62 14 -83 0 -14 -8 -32 -34 -42 -57 -15 -35 -28
-47 -82 -73 -150 -74 -209 -66 -224 31 -4 22 -17 53 -30 69 -58 72 -254 58
-296 -22 -10 -18 -10 -27 -1 -42 6 -11 9 -27 5 -36 -8 -22 -82 -13 -100 12
-11 15 -9 22 14 46 15 15 23 28 18 28 -5 0 -4 5 3 12 7 7 12 15 12 18 0 12
-67 40 -104 42 -26 2 -43 10 -50 22 -11 18 -47 63 -63 78 -5 4 -22 20 -39 36
-37 34 -48 74 -39 143 10 73 28 81 178 87 67 2 138 7 157 11 34 7 75 3 260
-22z m1298 -149 c5 -58 -12 -86 -60 -99 -23 -6 -60 -8 -80 -5 -122 19 -118 19
-118 2 0 -9 -8 -16 -20 -16 -11 0 -23 -1 -27 -2 -4 -2 -10 9 -14 25 -6 21 -3
30 14 42 29 20 87 19 102 -2 13 -18 22 -12 105 68 50 49 93 44 98 -13z m-156
-2455 c-55 -70 -75 -143 -76 -280 -1 -68 -4 -123 -8 -123 -4 0 -14 13 -23 30
-18 35 -44 51 -73 43 -23 -6 -27 4 -36 87 -3 25 -8 70 -11 100 -6 46 -3 62 17
99 36 68 66 85 156 91 42 3 78 2 80 -2 2 -4 -10 -24 -26 -45z m2970 -984 c158
-24 178 -30 190 -52 34 -64 25 -142 -16 -153 -13 -3 -50 2 -83 10 -80 21 -114
20 -201 -4 -39 -11 -75 -20 -80 -20 -15 0 1 84 20 111 11 15 23 48 25 73 5 44
7 46 39 46 19 0 66 -5 106 -11z"/>
<path d="M4759 6658 c-23 -25 -49 -78 -49 -102 0 -26 130 -103 185 -111 28 -3
80 -11 118 -16 l67 -11 28 30 c21 22 40 31 78 37 28 3 66 16 85 27 l33 20 -23
19 c-31 25 -87 34 -127 20 -25 -9 -43 -9 -76 -1 -23 7 -59 9 -80 6 -21 -4 -38
-3 -38 2 0 15 -45 11 -99 -9 -30 -11 -60 -18 -68 -15 -18 7 -17 71 3 101 15
23 15 25 1 25 -9 0 -26 -10 -38 -22z"/>
<path d="M5010 6331 c-93 -6 -114 -11 -187 -45 -87 -41 -129 -76 -120 -99 4
-11 17 -12 59 -6 29 4 67 12 83 19 17 6 80 13 142 15 62 2 149 9 193 16 68 10
87 9 123 -4 73 -26 116 -30 124 -11 9 25 -9 46 -52 59 -22 6 -60 22 -83 34
-51 26 -128 32 -282 22z"/>
<path d="M4411 5907 c-8 -10 -3 -22 19 -48 16 -19 29 -39 30 -46 0 -20 52 -68
108 -102 30 -18 59 -37 65 -42 16 -14 80 -52 92 -55 6 -2 41 -10 80 -19 38 -8
84 -22 102 -30 18 -9 57 -20 87 -27 51 -10 60 -9 108 14 29 14 85 38 123 53
82 33 139 67 178 105 35 34 25 42 -51 41 -31 0 -93 4 -136 10 -44 6 -145 12
-225 14 -219 5 -247 11 -443 107 -10 4 -26 8 -35 8 -10 0 -31 7 -47 15 -35 18
-41 19 -55 2z"/>
</g>
</svg>
